#!OML:ASF H:\Not Pregnant\Project 1\Capture day 1\Session 1\non-pregnant.ASF
:FULLY-SPECIFIED
:DEGREES
453
root 14.5222 15.9651 -1.89234 192.816 8.07632 186.757
lowerback -5.51192 2.83103 8.81135
upperback -10.6906 5.18142 0.105702
thorax -7.62312 2.49053 -4.90141
lowerneck 6.05025 -7.32125 -29.7127
upperneck 5.07555 -17.4604 35.4288
head 6.66713 -10.3723 16.8825
rclavicle -5.82936e-014 -3.61788e-014
rhumerus -30.2001 20.9658 -82.6953
rradius 65.9964
rwrist -18.6537
rhand -16.1492 -29.9465
rfingers 7.12502
rthumb 10.0563 -59.6862
lclavicle -5.82936e-014 -3.61788e-014
lhumerus -40.1318 -9.52882 74.0329
lradius 75.496
lwrist 59.2446
lhand -17.1925 15.2161
lfingers 7.12502
lthumb 9.04957 45.0019
rfemur 8.09952 3.48581 28.1081
rtibia 11.4727
rfoot -11.7304 11.3857
rtoes -31.8699
lfemur -45.8368 3.30591 -18.4156
ltibia 32.3019
lfoot -7.17785 -1.24827
ltoes -22.0814
454
root 14.5184 15.9674 -2.06206 192.735 8.04944 186.337
lowerback -5.65261 2.74277 8.25424
upperback -10.7714 5.06867 0.0434054
thorax -7.66876 2.47716 -4.6562
lowerneck 6.02995 -7.274 -29.7009
upperneck 5.16367 -17.4163 35.4169
head 6.67562 -10.3541 16.8881
rclavicle -1.43622e-014 1.39149e-014
rhumerus -30.4478 20.8667 -82.7778
rradius 65.9267
rwrist -18.4538
rhand -16.0993 -29.9125
rfingers 7.12502
rthumb 10.1044 -59.6499
lclavicle -1.43622e-014 1.39149e-014
lhumerus -40.4799 -9.35651 74.143
lradius 75.4556
lwrist 59.1433
lhand -17.1862 15.1418
lfingers 7.12502
lthumb 9.05568 44.9274
rfemur 7.1419 3.55918 27.5509
rtibia 14.2889
rfoot -11.3303 11.6871
rtoes -32.0803
lfemur -45.4735 2.95683 -18.8269
ltibia 32.7373
lfoot -6.17681 -1.84918
ltoes -20.6515
455
root 14.5145 15.9701 -2.22991 192.669 8.01263 185.874
lowerback -5.80744 2.64418 7.65737
upperback -10.8485 4.94092 -0.0326482
thorax -7.70367 2.45985 -4.40225
lowerneck 6.00178 -7.22546 -29.688
upperneck 5.23327 -17.3653 35.4202
head 6.67979 -10.3324 16.9011
rclavicle 8.59744e-015 -4.37326e-015
rhumerus -30.6687 20.7426 -82.8651
rradius 65.8473
rwrist -18.2245
rhand -16.0531 -29.8413
rfingers 7.12502
rthumb 10.1489 -59.5765
lclavicle 8.59744e-015 -4.37326e-015
lhumerus -40.8215 -9.17605 74.2448
lradius 75.3973
lwrist 59.0346
lhand -17.2211 15.034
lfingers 7.12502
lthumb 9.02202 44.821
rfemur 6.06645 3.49616 26.908
rtibia 17.2165
rfoot -10.6883 12.1909
rtoes -32.2141
lfemur -45.1068 2.592 -19.2891
ltibia 33.1569
lfoot -5.48446 -2.15542
ltoes -19.4079
456
root 14.5099 15.9734 -2.39588 192.611 7.96481 185.406
lowerback -5.9627 2.54001 7.07261
upperback -10.9163 4.80506 -0.114424
thorax -7.72667 2.438 -4.1603
lowerneck 5.9505 -7.1789 -29.6743
upperneck 5.29969 -17.3118 35.4342
head 6.6881 -10.3081 16.9183
rclavicle -2.55935e-014 -1.15295e-014
rhumerus -30.8538 20.5978 -82.9535
rradius 65.7577
rwrist -17.9918
rhand -16.0246 -29.7318
rfingers 7.12502
rthumb 10.1764 -59.4657
lclavicle -2.55935e-014 -1.15295e-014
lhumerus -41.1377 -8.98337 74.3394
lradius 75.3098
lwrist 58.9211
lhand -17.2754 14.8792
lfingers 7.12502
lthumb 8.96959 44.6685
rfemur 4.92553 3.29351 26.2074
rtibia 20.1616
rfoot -9.65737 12.9325
rtoes -32.0937
lfemur -44.7333 2.21713 -19.7658
ltibia 33.5756
lfoot -5.13358 -2.26962
ltoes -18.2964
457
root 14.5039 15.9772 -2.55944 192.548 7.89516 184.968
lowerback -6.10074 2.43229 6.54534
upperback -10.9663 4.66275 -0.194544
thorax -7.73671 2.40832 -3.94837
lowerneck 5.86857 -7.14187 -29.656
upperneck 5.36122 -17.2606 35.4509
head 6.70204 -10.2814 16.9325
rclavicle -2.51463e-014 -1.35174e-014
rhumerus -30.9871 20.4288 -83.036
rradius 65.6541
rwrist -17.758
rhand -15.9839 -29.6118
rfingers 7.12502
rthumb 10.2157 -59.3438
lclavicle -2.51463e-014 -1.35174e-014
lhumerus -41.4179 -8.77611 74.4248
lradius 75.1984
lwrist 58.8066
lhand -17.3574 14.7123
lfingers 7.12502
lthumb 8.89051 44.505
rfemur 3.75314 2.96619 25.4821
rtibia 23.0802
rfoot -8.12065 13.8676
rtoes -31.5732
lfemur -44.3419 1.82973 -20.2213
ltibia 33.9966
lfoot -5.08803 -2.29223
ltoes -17.2913
458
root 14.4962 15.9814 -2.71993 192.438 7.80546 184.58
lowerback -6.15953 2.32267 6.10501
upperback -10.9939 4.51654 -0.266239
thorax -7.7628 2.36706 -3.77959
lowerneck 5.81946 -10.4104 -29.9778
upperneck 7.49215 -16.767 34.6182
head 7.39321 -8.05479 16.8404
rclavicle -3.32467e-014 -2.46493e-014
rhumerus -31.0734 20.2445 -83.1167
rradius 65.5297
rwrist -17.5265
rhand -15.9532 -29.4601
rfingers 7.12502
rthumb 10.2453 -59.1905
lclavicle -3.32467e-014 -2.46493e-014
lhumerus -41.6663 -8.55391 74.5001
lradius 75.061
lwrist 58.6932
lhand -17.4508 14.544
lfingers 7.12502
lthumb 8.80031 44.3406
rfemur 2.60384 2.5743 24.7621
rtibia 25.9491
rfoot -5.95479 14.8748
rtoes -30.471
lfemur -43.8813 1.4383 -20.6351
ltibia 34.4119
lfoot -5.2838 -2.29435
ltoes -16.4023
